<svg id="Layer_1" data-name="Layer 1" xmlns="http://www.w3.org/2000/svg" width="191.39mm" height="46.13mm" viewBox="0 0 542.51 130.76"><defs><style>.cls-1{fill:#676766;}.cls-2{fill:#222428;}</style></defs><title>logo-black</title><path class="cls-1" d="M26.77,0,32.3,20.76,37.14,0h9L37.37,32.29H28.61L23.09,12.22,17.56,32.29H8.81L.06,0H9l4.84,20.76L19.4,0Z"/><path class="cls-1" d="M74,32.29H48.42V0H74V6.46H56.71v6.23H70.3v6.46H56.71v6.69H74Z"/><path class="cls-1" d="M99.87,32.29H91.58V0h25.56V6.46H99.87v7.61h13.59v6.46H99.87Z"/><path class="cls-1" d="M128.61,25.83h16.81v6.46h-25.1V0h8.29Z"/><path class="cls-1" d="M139.48,0h8.75l7.6,15.68L163.44,0h8.75L160,23.76v8.53h-8.29V23.76Z"/><path class="cls-2" d="M50.7,39.37Q65.39,39.37,73,47t7.6,22.29v31.2q0,14.69-7.6,22.29t-22.29,7.6H0v-91Zm6.5,29.9q0-11.7-11.7-11.7H23.4v54.6H45.5q11.7,0,11.7-11.7Z"/><path class="cls-2" d="M95.16,39.37h54.6q13.65,0,19.82,6.17t6.18,19.83v11.7q0,10.79-3.57,16.77t-11.37,7.93l16.25,28.6H151.71l-14.95-27.3h-18.2v27.3H95.16Zm57.2,26q0-7.8-7.8-7.8h-26v27.3h26q7.8,0,7.8-7.8Z"/><path class="cls-2" d="M200.49,57.92l.28-.18.33-.21a2.57,2.57,0,0,1,2.34-2.27l.14-.27,0-.08-.29-.09c-.41-.17-1.12-.41-1.28-.46a1.45,1.45,0,0,0-1,.45c-.37.34-.93,1-.93,1a1.16,1.16,0,0,0-.12,1Z"/><path class="cls-2" d="M185.24,76l.89-.59c1.36-.91,6.93-4.63,8-5.26s7.14-4.08,7.71-4.75a29.63,29.63,0,0,0,1.77-5,2.58,2.58,0,0,1-2.46-2.13l-2.56,1.63a24.06,24.06,0,0,0-2.25,1.71l-3.92,4.06-5.83,5.67L184,73.74c-.74.7-.46,1.1-.46,1.1l.79,1A.65.65,0,0,0,185.24,76Z"/><circle class="cls-2" cx="203.65" cy="57.82" r="1.95"/><path class="cls-2" d="M203.53,114.58a2.57,2.57,0,0,1-2.34-2.27l-.33-.21,0,0c0,.16-.09.3-.11.37-.17.41-.41,1.12-.46,1.28a1.45,1.45,0,0,0,.45,1c.34.37,1,.93,1,.93a1.16,1.16,0,0,0,1,.12l1.21-.52-.21-.4Z"/><path class="cls-2" d="M203.67,109.44a29.63,29.63,0,0,0-1.77-5c-.56-.66-6.66-4.12-7.71-4.75s-6.61-4.35-8-5.26l-.89-.59a.65.65,0,0,0-.89.15l-.79,1s-.28.4.46,1.1l2.53,2.4,5.83,5.67,3.92,4.06a24.06,24.06,0,0,0,2.25,1.71l2.56,1.63A2.58,2.58,0,0,1,203.67,109.44Z"/><circle class="cls-2" cx="203.75" cy="112.02" r="1.95"/><circle class="cls-2" cx="258.1" cy="57.82" r="1.95"/><path class="cls-2" d="M258.32,55.26a2.57,2.57,0,0,1,2.34,2.27l.33.21.21.14.48-1.11a1.16,1.16,0,0,0-.12-1s-.57-.65-.93-1a1.45,1.45,0,0,0-1-.45c-.16.06-.86.3-1.28.46l-.22.07.05.11Z"/><path class="cls-2" d="M206.21,57.49a40.06,40.06,0,0,0,3.68-2.32c1-.81,2.71-2.58,2.71-2.58l6.72-6.71,4.47-4.33a.81.81,0,0,0,.1-1s-.65-.68-.81-.92-.58,0-.58,0l-.41.29s-4.6,3.24-6.45,4.5-6.86,4.33-8,5.09a5,5,0,0,0-2.18,3,30.88,30.88,0,0,1-1.37,2.9A2.58,2.58,0,0,1,206.21,57.49Z"/><path class="cls-2" d="M242.42,45.88l6.72,6.71s1.73,1.77,2.71,2.58a40.06,40.06,0,0,0,3.68,2.32,2.58,2.58,0,0,1,2.07-2.21,30.88,30.88,0,0,1-1.37-2.9,5,5,0,0,0-2.18-3c-1.1-.76-6.1-3.83-8-5.09s-6.45-4.5-6.45-4.5l-.41-.29s-.41-.19-.58,0-.81.92-.81.92a.81.81,0,0,0,.1,1Z"/><path class="cls-2" d="M234.36,72.7V70.87a.88.88,0,0,0-.86-.49h-5.34a.88.88,0,0,0-.86.49v1.81a11.59,11.59,0,0,0,3.55.73A11.46,11.46,0,0,0,234.36,72.7Z"/><path class="cls-2" d="M260.95,112.45c0-.06-.06-.18-.1-.32l-.29.19a2.57,2.57,0,0,1-2.34,2.27l-.14.27-.22.43,1.14.49a1.16,1.16,0,0,0,1-.12s.65-.57,1-.93a1.45,1.45,0,0,0,.45-1C261.35,113.57,261.11,112.86,260.95,112.45Z"/><path class="cls-2" d="M255.45,112.35a40.06,40.06,0,0,0-3.68,2.32c-1,.81-2.71,2.58-2.71,2.58L242.33,124l-4.47,4.33a.81.81,0,0,0-.1,1s.65.68.81.92.58,0,.58,0l.41-.29s4.6-3.24,6.45-4.5,6.86-4.33,8-5.09a5,5,0,0,0,2.18-3,30.88,30.88,0,0,1,1.37-2.9A2.58,2.58,0,0,1,255.45,112.35Z"/><path class="cls-2" d="M277.73,73.74l-2.53-2.4-5.83-5.67-3.92-4.06a24.06,24.06,0,0,0-2.25-1.71l-2.56-1.63a2.58,2.58,0,0,1-2.46,2.13,29.63,29.63,0,0,0,1.77,5c.56.66,6.66,4.12,7.71,4.75s6.61,4.35,8,5.26l.89.59a.65.65,0,0,0,.89-.15l.79-1S278.47,74.44,277.73,73.74Z"/><path class="cls-2" d="M277.3,94a.65.65,0,0,0-.89-.15l-.89.59c-1.36.91-6.93,4.63-8,5.26s-7.14,4.08-7.71,4.75a29.63,29.63,0,0,0-1.77,5,2.58,2.58,0,0,1,2.46,2.13l2.56-1.63a24.06,24.06,0,0,0,2.25-1.71l3.92-4.06,5.83-5.67,2.53-2.4c.74-.7.46-1.1.46-1.1Z"/><circle class="cls-2" cx="258" cy="112.02" r="1.95"/><path class="cls-2" d="M233,95.47a12.7,12.7,0,0,0-2.2-.2,12.57,12.57,0,0,0-2.14.2c-.64.14-.68.55-.68.59v2.09c0,.53.57.55.69.55H233a1.08,1.08,0,0,0,.39-.09.46.46,0,0,0,.3-.47V96.06S233.69,95.61,233,95.47Z"/><path class="cls-2" d="M219.42,124l-6.72-6.71s-1.73-1.77-2.71-2.58a40.06,40.06,0,0,0-3.68-2.32,2.58,2.58,0,0,1-2.07,2.21,30.88,30.88,0,0,1,1.37,2.9,5,5,0,0,0,2.18,3c1.1.76,6.1,3.83,8,5.09s6.45,4.5,6.45,4.5l.41.29s.41.19.58,0,.81-.92.81-.92a.81.81,0,0,0-.1-1Z"/><path class="cls-2" d="M244.94,92.26c.4.65.87,1.37,1.41,2.14l1,1.37V74.42l-1.11,1.47s-.6.93-1.27,2Z"/><path class="cls-2" d="M240.26,99.82l5.86,4.43s3.55,2.76,4.63,3.75a18.14,18.14,0,0,1,2.8,4.65l0,.06,1.54-.91.33-.19a2.58,2.58,0,0,1,1.95-2.1l.07-.25c.16-.54.3-1,.43-1.45l-.73-.38a25.81,25.81,0,0,1-3.11-1.84c-.5-.38-3.55-4.32-3.55-4.32s-2.84-3.89-4.68-6.51a46.11,46.11,0,0,1-2.89-4.7V90a13.19,13.19,0,0,1-1.16-3.76,12.16,12.16,0,0,1,.82-5.31,1.1,1.1,0,0,0,.08-.31c.7-1.51,3-5.09,3-5.09l4.43-5.86s2.76-3.55,3.75-4.63a16.41,16.41,0,0,1,4.23-2.6c-.16-.52-.35-1.12-.55-1.83l-.07-.25a2.58,2.58,0,0,1-1.95-2.1l-.33-.19L254,57.32c-.24.4-.47.84-.68,1.26a25.81,25.81,0,0,1-1.84,3.11c-.38.5-4.32,3.55-4.32,3.55s-3.89,2.84-6.51,4.68a35.62,35.62,0,0,1-4.8,2.84v0a14.46,14.46,0,0,1-5,1.26,14.65,14.65,0,0,1-5.06-1.27,35.62,35.62,0,0,1-4.8-2.84c-2.63-1.84-6.51-4.68-6.51-4.68s-3.94-3.06-4.32-3.55a25.81,25.81,0,0,1-1.84-3.11c-.2-.41-.43-.83-.66-1.22l-1.16.68-.33.19a2.58,2.58,0,0,1-1.95,2.1l-.07.25c-.21.72-.4,1.33-.56,1.86A16.14,16.14,0,0,1,207.78,65c1,1.08,3.75,4.63,3.75,4.63L216,75.5a54.46,54.46,0,0,1,3.15,5.4,12.16,12.16,0,0,1,.82,5.31A13.19,13.19,0,0,1,218.77,90a45.15,45.15,0,0,1-2.94,4.8c-1.84,2.63-4.68,6.51-4.68,6.51s-3.06,3.94-3.55,4.32a25.81,25.81,0,0,1-3.11,1.84l-.66.34c.14.44.28.93.45,1.49l.07.25a2.58,2.58,0,0,1,1.95,2.1l.33.19,1.48.88v0a18.14,18.14,0,0,1,2.8-4.65c1.08-1,4.63-3.75,4.63-3.75l5.86-4.43.6-.39a12.32,12.32,0,0,0,5.08,1.23c1,.12,3.77.21,3.77.21s2.78-.1,3.77-.21a12.38,12.38,0,0,0,5-1.22ZM234,98.15c0,.88-1,.87-1,.87h-4.32s-1,0-1-.87V96.06s0-.7.93-.9a12.75,12.75,0,0,1,2.2-.21h.06a12.75,12.75,0,0,1,2.2.21c.93.2.93.9.93.9Z"/><path class="cls-2" d="M216.72,77.92c-.51-.83-1-1.61-1.3-2.06l-1.08-1.43V95.78l1-1.37c.54-.77,1-1.5,1.41-2.15Z"/><path class="cls-2" d="M365.85,130.37h-24.7l-31.2-54.6v54.6h-23.4v-91h24.7L342.45,94V39.37h23.4Z"/><path class="cls-2" d="M455.16,130.37H383v-91h72.15v18.2H406.41V75.12h38.35v18.2H406.41v18.85h48.75Z"/><path class="cls-2" d="M486.62,68q0,7.8,7.8,7.8h23.4q12.74,0,18.72,5.88t6,18.42v6.39q0,12.53-6,18.42t-18.72,5.88H483.24a105.86,105.86,0,0,1-18.85-1.69V112.43h48.23a6.64,6.64,0,0,0,4.75-1.65,5.85,5.85,0,0,0,1.75-4.48v-11h-29.9q-13.65,0-19.82-6.17t-6.18-19.83v-3.9q0-13.65,6.18-19.83t19.82-6.17h45.63v18.2H494.42q-7.8,0-7.8,7.8Z"/></svg>